PathFileType	3	(X/Y/Z)	D:\minhoCalibration\240510\subject5_KPNP\preferred\preferred06.trc
DataRate	CameraRate	NumFrames	NumMarkers	Units	OrigDataRate	OrigDataStartFrame	OrigNumFrames
200.0	200.0	27	10	mm	200.0	321	159	
Frame#	Time	Left_Ankle_Outer1			Left_Ankle_Inner1			Left_Knee_Outer1			Left_Knee_Inner1			Left_Wrist1			Right_Wrist1			Right_Knee_Inner1			Right_Knee_Outer1			Right_Ankle_Inner1			Right_Ankle_Outer1			
		X1	Y1	Z1	X2	Y2	Z2	X3	Y3	Z3	X4	Y4	Z4	X5	Y5	Z5	X6	Y6	Z6	X7	Y7	Z7	X8	Y8	Z8	X9	Y9	Z9	X10	Y10	Z10	
321	1.595	-368.2583	85.663994	-634.69617	-401.75311	98.675453	-594.55676	-192.35625	527.10248	-563.82629	-248.21936	512.78424	-489.61346	-186.23872	971.8913	-675.84674	-388.13779	1181.215	-515.39166	-429.31381	903.08044	-87.29203	-480.65479	975.01257	-100.60902	-565.90979	697.92755	276.70117	-653.22705	735.08496	255.83089
322	1.6	-368.44138	85.61393	-634.61365	-401.86737	98.866241	-594.34955	-192.83337	527.13635	-564.0946	-249.03049	512.9046	-490.27316	-184.13962	973.03766	-675.30383	-388.83829	1180.687	-515.31439	-432.21155	895.90155	-89.838661	-483.59726	967.71216	-102.85001	-572.5318	683.5506	268.3923	-659.5589	720.97845	247.30215
323	1.605	-368.65884	85.548286	-634.50928	-401.91147	98.735077	-594.3031	-193.34904	527.26855	-564.58209	-249.8968	513.02972	-490.81467	-182.21172	974.19135	-674.87469	-389.5925	1179.9304	-515.10028	-434.98273	888.53754	-92.79528	-486.52438	960.36444	-105.38814	-578.93396	669.15234	259.71716	-665.85059	706.48352	238.36295
324	1.61	-368.77988	85.485664	-634.50421	-402.12225	98.782959	-594.3222	-193.9045	527.38007	-565.15839	-250.7075	513.22351	-491.47333	-179.97568	975.77832	-673.34021	-390.90677	1178.8549	-514.51398	-437.77966	881.13696	-95.940292	-489.52554	952.89093	-108.00822	-585.27014	654.63898	250.45869	-671.95905	692.0686	228.93596
325	1.615	-368.84305	85.451332	-634.59143	-402.18817	98.675217	-594.11823	-194.53894	527.46912	-565.72083	-251.78125	513.87952	-492.21381	-178.33771	976.97833	-671.22021	-391.40424	1177.7834	-515.547	-440.5575	873.67487	-99.321114	-492.53055	945.31897	-110.78786	-591.50903	639.91174	241.29401	-677.74982	677.46533	218.93103
326	1.62	-368.96561	85.367668	-634.61847	-402.5061	98.390686	-594.4082	-195.2159	527.70038	-566.38196	-252.724	513.83984	-492.8631	-175.93182	978.78027	-670.69025	-392.46399	1177.1099	-515.4635	-443.27557	866.11334	-102.93133	-495.45892	937.71765	-113.77462	-597.75446	624.79144	231.18575	-683.8382	663.21008	209.30858
327	1.625	-369.09247	85.343544	-634.62585	-402.60361	98.203255	-594.30664	-195.81172	527.89703	-567.06042	-253.41159	513.41626	-494.76154	-173.95319	980.12421	-669.74304	-393.96713	1176.3538	-515.12817	-445.95035	858.43561	-106.81239	-498.31598	930.04565	-117.06519	-603.36127	609.8595	220.66141	-689.18732	648.35492	198.40756
328	1.63	-369.20285	85.21949	-634.73175	-402.40085	98.449547	-594.10229	-196.34787	528.15808	-567.77661	-254.23653	514.15662	-494.61902	-171.84682	981.54047	-668.70068	-394.83426	1175.1006	-515.74854	-448.51627	850.67493	-110.96335	-500.93561	922.23901	-120.58343	-609.02924	594.85498	209.69446	-694.5741	633.64124	187.37341
329	1.635	-369.23538	85.233665	-634.83252	-402.42484	98.504448	-594.09082	-196.74898	528.3606	-568.52637	-255.0489	514.36816	-495.27539	-169.93211	982.7605	-667.26727	-395.30481	1173.6835	-517.22827	-450.99915	842.88269	-115.60917	-503.6221	914.41125	-124.11588	-614.33191	579.80396	198.40092	-699.52179	619.42419	176.15324
330	1.64	-369.32382	85.228439	-634.84332	-402.44043	98.444603	-594.42529	-197.1935	528.59656	-569.16687	-255.37029	514.19818	-497.01831	-167.74263	983.99353	-666.19238	-396.99374	1172.4154	-517.51306	-453.53946	834.74298	-120.05583	-506.43396	906.61517	-127.63053	-619.6001	564.80487	186.7787	-704.68475	604.40338	164.36182
331	1.645	-369.40335	85.173042	-634.92712	-402.5809	98.290672	-594.33807	-197.47215	528.72339	-569.83014	-255.90822	514.77539	-496.79901	-156.6171	987.44165	-674.8219	-398.45901	1171.4456	-517.1593	-455.99527	826.58398	-124.63302	-508.4328	898.38269	-131.57854	-624.57513	549.79602	174.72112	-709.48053	589.75885	152.2361
332	1.65	-369.27029	85.200249	-635.04718	-402.2803	98.585274	-594.42993	-197.64186	528.78406	-570.49182	-256.15335	514.89514	-497.58258	-165.20694	985.57281	-663.40411	-399.46161	1169.8691	-518.37939	-458.46643	818.37421	-129.56367	-510.90897	890.12201	-135.00641	-629.36273	534.88904	162.30226	-714.05054	575.15845	139.69281
333	1.655	-369.42389	85.095985	-635.06445	-402.44089	98.340881	-594.63666	-197.69923	528.88629	-571.12726	-256.48062	515.0437	-498.19113	-163.49428	986.80914	-663.76355	-400.58945	1168.6853	-518.41077	-460.71857	810.18317	-134.51038	-513.46405	881.90002	-139.48836	-633.85034	519.961	149.32506	-718.34467	560.65533	126.75914
334	1.66	-369.29343	85.131073	-635.14642	-402.43942	98.339729	-594.69708	-197.79335	528.98126	-571.60327	-257.11362	515.01056	-499.62418	-162.45891	987.90283	-663.07605	-401.71353	1167.3331	-519.00098	-462.92236	801.99658	-139.59047	-515.82471	873.46558	-143.74043	-638.29254	505.15192	136.20262	-722.50873	546.15063	113.45024
335	1.665	-369.23495	85.144318	-635.23737	-402.2016	98.611649	-594.58765	-197.92436	528.96466	-572.02216	-256.27881	515.92212	-498.65079	-160.92581	988.23047	-661.58826	-403.01859	1165.7559	-519.11987	-465.05753	793.83167	-144.88644	-518.36017	865.30536	-147.93178	-642.19153	490.51373	122.36124	-726.46216	531.67157	99.885933
336	1.67	-369.02768	85.222893	-635.41663	-402.2713	98.363342	-595.11847	-197.86737	529.04169	-572.35577	-256.61496	516.0567	-499.10098	-159.97746	989.11237	-660.98206	-403.98743	1163.8496	-520.17639	-467.08661	785.71344	-150.26518	-520.69531	856.99609	-152.44157	-645.948	475.85168	108.2999	-730.08167	517.42847	85.732994
337	1.675	-368.94482	85.173515	-635.48322	-402.13361	98.545815	-595.1803	-197.88338	529.03601	-572.55585	-256.95374	516.18951	-499.49109	-158.31964	989.64655	-659.716	-405.33569	1162.438	-519.75433	-469.05014	777.77264	-155.7025	-522.84076	848.54498	-157.47952	-649.44507	461.58008	93.960899	-733.48059	503.1503	71.29509
338	1.68	-368.78497	85.250961	-635.66895	-402.12964	98.509041	-595.21051	-197.82001	529.14313	-572.64026	-257.37704	516.2912	-499.83853	-157.1963	990.073	-659.32709	-405.96857	1160.4185	-521.01019	-469.99359	770.19824	-161.34999	-525.39868	840.32751	-162.1739	-652.74078	447.39224	79.173805	-736.5506	489.02277	56.457024
339	1.685	-368.59518	85.354515	-635.8493	-401.92023	98.627953	-595.35168	-197.79364	529.14447	-572.56635	-257.91019	516.42413	-500.07611	-155.94481	990.98865	-657.98218	-406.69485	1158.6158	-521.21942	-472.04282	762.36273	-167.38997	-527.51642	832.0752	-167.58081	-655.66895	433.25479	63.924713	-739.35181	475.00497	41.223129
340	1.69	-368.36514	85.496407	-636.10406	-401.4119	99.025421	-595.39941	-197.72801	529.18799	-572.36615	-258.4516	516.95343	-500.20157	-154.71033	991.60449	-657.51239	-408.31439	1156.6649	-521.5321	-473.6189	754.59271	-173.38467	-529.75476	823.78229	-172.96207	-658.32391	419.27673	48.242603	-741.80859	461.1236	25.624493
341	1.695	-368.11313	85.494514	-636.39191	-401.44861	98.58754	-596.60889	-197.64406	529.18274	-572.05536	-258.92892	516.98755	-500.39999	-153.64702	992.22772	-657.15649	-409.60083	1154.9221	-521.67139	-475.02969	746.92395	-179.52643	-531.659	815.37079	-178.93004	-660.73138	405.67285	32.621746	-744.11426	447.56827	9.5425797
342	1.7	-367.84131	85.537132	-636.6134	-401.51712	98.410538	-597.68134	-197.50822	529.22321	-571.76617	-259.8638	516.38849	-502.54004	-152.27557	993.28406	-655.69489	-411.02545	1153.0557	-521.65979	-476.44342	739.2998	-185.80678	-533.56909	807.10596	-184.91956	-662.88904	391.88016	16.636982	-745.93573	433.73358	-6.5393395
343	1.705	-367.63779	85.523766	-636.8194	-401.74576	98.388435	-597.81165	-197.37566	529.2193	-571.38721	-260.47964	516.55383	-502.80566	-151.50223	993.95355	-653.64819	-412.38037	1151.0205	-522.65369	-477.72748	731.64081	-192.18896	-535.67554	799.1405	-190.64796	-664.53467	378.52133	-0.059425242	-747.60175	420.53836	-23.301493
344	1.71	-367.20544	85.515617	-637.28851	-401.49359	98.60125	-598.26941	-197.1996	529.21295	-570.93005	-261.08304	516.77356	-502.98679	-149.961	995.22473	-653.19135	-414.24323	1149.0453	-522.45074	-478.8736	724.18628	-198.55524	-537.68756	791.08557	-196.52943	-665.86853	365.44949	-16.707771	-748.927	407.42413	-40.246452
345	1.715	-366.81061	85.518707	-637.57257	-401.19949	98.824303	-598.69525	-196.96336	529.21332	-570.35101	-261.66049	516.82776	-503.23279	-148.84695	996.03827	-652.3172	-415.28992	1147.2726	-523.77917	-480.06464	716.74115	-205.24103	-539.37018	783.05182	-202.94672	-666.92487	352.47388	-33.665764	-749.91614	394.58008	-57.340679
346	1.72	-366.30594	85.488503	-638.06293	-400.63693	98.466309	-599.2301	-196.65178	529.15076	-569.84961	-262.17728	517.65814	-501.35815	-147.60518	996.92383	-651.34808	-416.71585	1145.0956	-524.92786	-481.11661	709.37402	-211.91928	-540.91779	775.13336	-209.36639	-667.69196	340.0293	-50.895409	-750.60657	381.86545	-74.95649
347	1.725	-365.77853	85.438919	-638.61792	-400.18146	98.622696	-599.42023	-196.41818	529.08551	-569.14056	-262.51489	517.59778	-501.56848	-146.55508	997.61328	-649.98767	-417.73163	1142.8556	-526.29718	-482.16354	702.15527	-218.66759	-542.59595	767.35254	-215.89282	-668.18335	327.40726	-68.355484	-750.93872	369.3735	-92.848328
